<svg data-v-423bf9ae="" xmlns="http://www.w3.org/2000/svg" viewBox="0 0 432.5690102824719 60" class="font"><!----><!----><!----><g data-v-423bf9ae="" id="d03c0874-c068-4952-badb-83c02e047b8b" fill="black" transform="matrix(4.246284466670298,0,0,4.246284466670298,-4.7983075191388025,-19.235667023299015)"><path d="M8.91 4.66C8.61 4.66 3.20 4.57 2.88 4.55L2.84 4.97C2.99 4.96 3.34 4.96 3.82 4.96C4.40 4.96 4.60 5.09 4.60 5.52C4.60 5.71 4.56 5.96 4.50 6.29L2.93 15.49L1.25 15.46L1.13 15.87C3.04 15.91 6.10 16.00 6.87 16.00C10.67 16.00 13.82 13.13 13.82 8.76C13.82 6.08 12.14 4.66 8.91 4.66ZM4.68 15.53L6.30 8.41C6.43 7.87 6.97 5.87 7.10 4.98C7.96 4.99 8.67 5.00 8.85 5.00C10.68 5.02 11.62 6.15 11.62 8.30C11.62 12.70 9.72 15.60 6.96 15.60C6.20 15.60 5.44 15.56 4.68 15.53ZM21.92 9.30C21.76 9.30 21.23 9.38 20.92 10.10C20.58 9.48 19.89 9.15 18.81 9.15C16.19 9.15 14.44 10.83 14.44 13.33C14.44 14.93 15.66 16.00 17.48 16.00C19.22 16.00 20.03 14.96 20.53 13.92C20.53 15.25 21.30 16.00 22.13 16.00C22.71 16.00 23.32 15.63 23.72 14.85L24.32 13.67L24.21 13.60L23.73 14.51C23.52 14.92 23.12 15.16 22.77 15.16C22.43 15.16 22.14 14.93 22.14 14.43C22.14 14.33 22.16 14.23 22.18 14.11L22.49 12.91C22.65 12.33 23.20 10.04 23.27 9.30ZM20.71 10.31C20.73 10.35 20.74 10.42 20.74 10.49C20.74 10.60 20.73 10.71 20.72 10.77L20.60 12.56C20.59 12.65 20.56 13.00 20.49 13.15C20.09 14.19 19.37 15.53 18.08 15.53C17.08 15.53 16.55 14.98 16.55 13.97C16.55 11.30 17.68 9.52 19.37 9.52C19.84 9.52 20.42 9.75 20.71 10.31ZM27.62 14.72L27.77 14.06L28.10 12.66C28.14 12.50 28.18 12.30 28.21 12.10C28.62 11.06 29.35 9.69 30.63 9.69C31.55 9.69 32.16 10.32 32.16 11.26C32.16 13.88 31.03 15.63 29.34 15.63C28.75 15.63 28.28 15.31 28.01 14.90L27.92 15.29C28.30 15.76 28.96 16.00 29.89 16.00C32.52 16.00 34.28 14.40 34.28 11.89C34.28 10.27 33.12 9.23 31.23 9.23C29.63 9.23 28.81 10.10 28.31 11.05C28.30 10.14 28.01 9.30 26.97 9.30C26.22 9.30 25.74 9.50 25.29 10.38L25.01 10.92L25.12 11.00L25.27 10.71C25.47 10.33 25.79 9.88 26.00 9.88C26.12 9.88 26.20 10.04 26.20 10.43C26.20 10.55 26.17 10.96 26.15 11.12L25.27 16.35C25.07 17.51 24.98 18.09 24.98 18.38C24.98 18.61 25.04 18.66 25.15 18.66L26.76 18.66C26.84 18.14 26.90 17.83 27.05 17.19ZM38.05 14.72L38.20 14.06L38.53 12.66C38.57 12.50 38.60 12.30 38.64 12.10C39.05 11.06 39.78 9.69 41.05 9.69C41.97 9.69 42.58 10.32 42.58 11.26C42.58 13.88 41.45 15.63 39.76 15.63C39.17 15.63 38.71 15.31 38.44 14.90L38.34 15.29C38.73 15.76 39.38 16.00 40.32 16.00C42.94 16.00 44.70 14.40 44.70 11.89C44.70 10.27 43.54 9.23 41.65 9.23C40.05 9.23 39.24 10.10 38.73 11.05C38.73 10.14 38.43 9.30 37.39 9.30C36.64 9.30 36.17 9.50 35.71 10.38L35.43 10.92L35.55 11.00L35.70 10.71C35.90 10.33 36.22 9.88 36.42 9.88C36.54 9.88 36.63 10.04 36.63 10.43C36.63 10.55 36.60 10.96 36.57 11.12L35.69 16.35C35.50 17.51 35.40 18.09 35.40 18.38C35.40 18.61 35.46 18.66 35.57 18.66L37.18 18.66C37.26 18.14 37.32 17.83 37.47 17.19ZM47.98 13.64C50.91 13.62 53.46 12.69 53.46 10.85C53.46 9.74 52.44 9.15 50.50 9.15C47.86 9.15 45.86 10.58 45.86 13.28C45.86 14.94 47.11 16.00 49.16 16.00C50.65 16.00 51.93 15.45 52.76 14.52L52.51 14.29C51.96 14.96 50.79 15.53 49.79 15.53C48.53 15.53 47.97 15.06 47.97 13.86C47.97 13.79 47.97 13.72 47.98 13.64ZM48.00 13.30C48.17 11.33 49.23 9.50 50.43 9.50C51.18 9.50 51.57 9.90 51.57 10.66C51.57 12.54 50.20 13.30 48.00 13.30ZM56.54 9.23C55.79 9.23 55.11 9.43 54.66 10.31L54.26 11.08L54.39 11.14L54.78 10.37C54.99 9.97 55.23 9.72 55.40 9.72C55.52 9.72 55.60 9.86 55.60 10.19C55.60 10.32 55.59 10.49 55.56 10.71L54.73 15.64C54.73 15.67 54.72 15.70 54.72 15.71C54.72 15.83 55.13 15.87 55.59 15.87L56.48 15.86C56.48 15.86 56.62 15.83 56.62 15.78L57.35 12.91C57.80 11.11 58.94 9.54 59.81 9.54C60.37 9.54 60.73 10.01 60.81 10.90C60.88 10.93 60.95 10.94 61.03 10.94C61.53 10.94 62.19 10.47 62.19 9.82C62.19 9.13 61.63 8.66 60.80 8.66C59.75 8.66 58.39 9.69 57.78 10.91C57.78 10.79 57.79 10.72 57.79 10.61C57.79 9.84 57.51 9.23 56.54 9.23ZM64.94 11.68C66.72 11.68 67.14 11.73 67.37 11.74L67.44 11.75L67.50 11.17L67.42 11.18C66.90 11.22 65.86 11.25 65.28 11.25C63.61 11.25 63.05 11.20 62.88 11.19L62.82 11.19L62.75 11.76L62.84 11.76C63.38 11.72 64.39 11.68 64.94 11.68ZM79.39 12.93L79.15 12.72C77.82 14.51 76.11 15.39 73.72 15.39C72.10 15.39 71.22 14.34 71.22 12.38C71.22 7.88 73.06 4.87 75.80 4.87C78.44 4.87 78.89 6.06 79.07 8.03C79.91 8.03 80.47 7.58 80.47 6.90C80.47 5.13 77.49 4.53 75.87 4.53C71.78 4.53 69.06 7.35 69.06 11.59C69.06 14.23 70.90 16.00 73.64 16.00C76.12 16.00 77.96 14.84 79.39 12.93ZM82.36 9.13C81.81 9.13 81.38 9.49 80.96 10.31L80.32 11.56L80.44 11.63L80.94 10.64C81.16 10.23 81.44 10.01 81.67 10.01C81.86 10.01 82.00 10.17 82.00 10.52C82.00 10.66 81.98 10.84 81.92 11.05L81.62 12.25C81.48 12.84 81.38 13.47 81.38 14.03C81.38 15.12 81.75 15.99 82.90 15.99C83.47 15.99 84.17 15.70 84.92 15.07L86.38 13.88C86.38 15.33 86.99 15.98 87.81 15.98C88.39 15.98 89.01 15.60 89.39 14.85L89.79 14.08L89.67 14.01L89.27 14.79C89.07 15.19 88.72 15.44 88.45 15.44C88.22 15.44 88.05 15.25 88.05 14.84C88.05 14.72 88.06 14.60 88.09 14.45L89.19 9.52L89.19 9.50C89.19 9.37 88.72 9.30 88.26 9.30L87.13 9.30C87.07 9.30 86.99 9.32 86.99 9.37L86.54 12.25C86.49 12.57 86.43 12.98 86.41 13.41L84.70 14.81C84.41 15.05 83.97 15.27 83.64 15.27C83.29 15.27 83.17 14.96 83.17 14.57C83.17 14.16 83.30 13.65 83.43 13.29L83.70 12.56C83.91 12.01 84.03 11.44 84.03 10.92C84.03 9.93 83.58 9.13 82.36 9.13ZM91.73 9.65L91.28 12.56C91.21 13.03 91.09 13.67 91.09 14.27C91.09 15.39 91.94 15.96 92.84 15.96C93.56 15.96 94.32 15.59 94.70 14.85L95.30 13.67L95.18 13.60L94.71 14.51C94.53 14.88 93.99 15.16 93.53 15.16C93.14 15.16 92.80 14.94 92.80 14.40C92.80 14.31 92.82 14.22 92.84 14.11L93.82 9.65L95.92 9.65L95.92 9.30L93.91 9.30L94.48 6.69C94.48 6.69 94.49 6.66 94.49 6.65C94.49 6.63 94.42 6.62 94.34 6.62L93.54 6.62C92.91 6.62 92.10 7.29 91.96 8.13L91.79 9.30L90.40 9.30L90.40 9.65ZM99.09 16.00C101.14 16.00 102.96 15.22 102.96 13.85C102.96 12.82 101.83 12.35 100.73 11.81C99.83 11.37 98.85 11.19 98.85 10.58C98.85 9.78 99.59 9.50 100.36 9.49C101.44 9.49 101.92 9.93 102.04 11.18C102.62 11.18 103.00 10.86 103.00 10.39C103.00 10.28 102.98 10.16 102.89 10.04C102.33 9.26 101.41 9.16 100.43 9.16C98.38 9.16 96.89 9.83 96.89 11.28C96.89 12.20 97.86 12.78 98.91 13.11C100.03 13.46 101.23 13.75 101.23 14.40C101.23 15.19 100.24 15.66 99.16 15.66C97.89 15.66 97.11 15.06 97.00 13.84L97.00 13.79C96.33 13.79 95.96 14.08 95.96 14.61C95.96 14.72 96.00 14.84 96.09 14.96C96.69 15.82 97.95 16.00 99.09 16.00Z"></path></g><!----><!----></svg>